<?xml version="1.0" encoding="utf-8"?>
<!-- Generator: Adobe Illustrator 19.0.0, SVG Export Plug-In . SVG Version: 6.00 Build 0)  -->
<svg version="1.1" id="Layer_1" xmlns="http://www.w3.org/2000/svg" xmlns:xlink="http://www.w3.org/1999/xlink" x="0px" y="0px"
	 width="690.1px" height="159.9px" viewBox="0 0 690.1 159.9" style="enable-background:new 0 0 690.1 159.9;" xml:space="preserve"
	>
<style type="text/css">
	.st0{fill-rule:evenodd;clip-rule:evenodd;fill:#23487A;}
	.st1{fill:#F48120;stroke:#F48120;stroke-width:0.3893;stroke-linecap:round;stroke-linejoin:round;stroke-miterlimit:22.9256;}
</style>
<g>
	<path class="st0" d="M8.9,97.8l3.9,6.8l0,0l8.6,15l17.7-30.7l26.4,45.2l7.9,0l0,0l17.3,0.1l-17.4-30.1l52.8-0.1l4-6.9h0l8.7-14.9
		l-35.7,0L129.4,37l-3.9-6.8l0-0.1l-8.8-15.2L99.2,45.6L73,0.1L64.7,0l0,0h-0.6l-0.3,0l0,0H47.1l18.2,30.7l-52.5,0l-3.8,6.5H8.7
		L0,52.5h0.2l-0.1,0.2l34.7-0.1L8.9,97.8L8.9,97.8z M86.8,67.3l3.9,6.8l0,0l4.7,8.2l-16.7,0l-3.9,6.8h-0.1l-5.1,8.8l-9-15.7l-7.8,0
		l0-0.1l-9.6,0l8.5-14.6l-3.9-6.8l0-0.1l-4.7-8.2L56,52.5h4.7L66.5,42l2.7-4.7l4,6.8l4.9,8.3l7.9,0l0,0l9.1,0L86.8,67.3L86.8,67.3z"
		/>
	<polygon class="st0" points="574.5,43.4 574.5,114.4 541.9,114.4 541.9,43.4 516.6,43.4 519.9,19.3 596.3,19.3 599.8,43.4 
		574.5,43.4 	"/>
	<path class="st0" d="M447.4,113.2l-0.9-25.8c2.4,0.8,4.8,1.4,7,1.7c2.2,0.4,4.3,0.6,6.3,0.6c3.6,0,6.5-0.7,8.8-2.1
		c2.3-1.4,3.4-3.1,3.4-5.2c0-2.8-3.1-6.3-9.3-10.5c-2.1-1.4-3.7-2.6-4.9-3.4c-4.4-3.3-7.6-6.8-9.8-10.3c-2.1-3.5-3.1-7.4-3.1-11.4
		c0-8.4,3.9-15.3,11.8-20.7c7.9-5.4,18-8.1,30.5-8.1c3.9,0,7.6,0.2,11.1,0.6c3.4,0.4,6.8,1,9.9,1.8v23.2c-2.7-1-5.2-1.8-7.6-2.3
		c-2.4-0.5-4.4-0.8-6.2-0.8c-4.1,0-7.3,0.6-9.4,1.9c-2.2,1.3-3.3,3.1-3.3,5.4c0,2.6,3,5.7,9,9.3c2.4,1.5,4.2,2.6,5.5,3.5
		c4.8,3.1,8.5,6.8,11.1,10.9c2.5,4.1,3.8,8.4,3.8,13.1c0,9.3-4.1,16.7-12.4,22c-8.3,5.3-19.8,8-34.5,8c-3,0-5.9-0.2-8.7-0.3
		C452.7,113.9,450,113.6,447.4,113.2L447.4,113.2z"/>
	<path class="st0" d="M403,75.2V18.9h32.3v56.3c0,8.7-0.8,15.3-2.5,19.6c-1.7,4.3-4.4,8.1-8.4,11.2c-3.4,2.7-7.9,4.8-13.3,6.2
		c-5.5,1.5-11.4,2.2-17.9,2.2c-6.4,0-12.4-0.7-17.8-2.2c-5.4-1.5-9.9-3.6-13.2-6.2c-4-3.1-6.8-6.9-8.5-11.3
		c-1.7-4.4-2.5-10.9-2.5-19.4V18.9h32.5v56.3c0,5.3,0.7,8.9,2.2,11c1.5,2.1,3.9,3.1,7.4,3.1c3.5,0,5.9-1.1,7.4-3.2
		C402.3,84,403,80.4,403,75.2L403,75.2z"/>
	<path class="st0" d="M230.5,114.4l43.7-95.1h36.5l41.3,95.1h-34.3l-4.5-10.7H269l-4.8,10.7H230.5L230.5,114.4z M278,80h25.7
		l-12.9-32.1L278,80L278,80z"/>
	<polygon class="st0" points="218.9,43.4 218.9,114.4 186.4,114.4 186.4,43.4 161,43.4 164.3,19.3 240.7,19.3 244.2,43.4 
		218.9,43.4 	"/>
	<polygon class="st0" points="690.1,88.2 681.4,114.4 612,114.4 612,19.3 681,19.3 686.4,44.6 644.3,44.6 644.3,54.3 672.5,54.3 
		672.5,79.4 644.3,79.4 644.3,88.2 690.1,88.2 	"/>
	<path class="st1" d="M382.3,106.2c0.3,0.2,0.4,0.4,0.4,0.6c0,0.4-0.2,0.5-0.7,0.5c-0.2,0-0.4,0-0.6-0.1c-1-0.6-1.9-0.8-2.7-0.8
		c-0.6,0-1.1,0.1-1.6,0.4c-1.8,1.1-4.6,7-8.4,17.7c2.9,0.4,4.7,0.7,5.4,0.7c0.4,0,0.6,0.2,0.6,0.5c0,0.3-0.2,0.5-0.6,0.6
		c-2.1,0.4-4.2,0.6-6.3,0.7c-2.4,7.2-4.3,13.8-5.7,19.9c-1.1,5-1.6,8.5-1.6,10.6c0,0.2,0,0.4,0.1,0.8c0.1,0.4,0.1,0.6,0.1,0.8
		c0,0.3-0.1,0.4-0.3,0.4c-0.3,0-0.9-0.3-1.9-0.9c-1.2-0.7-1.7-1.5-1.5-2.4c1.5-7.8,4.1-17.6,7.8-29.2c-1.4,0.1-2.2,0.1-2.5,0.1
		c-0.4-0.1-0.6-0.2-0.8-0.5c-0.2-0.5-0.3-0.7-0.3-0.8c0-0.3,0.3-0.5,0.8-0.6c0.8-0.2,1.6-0.4,2.4-0.6c0.7-0.2,1.2-0.5,1.3-0.9
		c2.8-8.2,5.1-13.8,6.7-16.9c1.3-2.5,2.6-3.7,3.8-3.7C377.7,103.3,379.6,104.3,382.3,106.2L382.3,106.2z M391.8,128.4
		c-1.6,4.5-2.7,8.3-3.4,11.3c0.3-0.3,0.6-0.6,1-1.1c0.4-0.5,0.7-0.8,0.8-0.9c0.2-0.3,0.5-0.5,0.8-0.5c0.3,0,0.4,0.1,0.4,0.4
		c0,0.2-0.1,0.3-0.2,0.6c-1.7,2.5-2.8,4.9-3.3,7.4c-0.2,0.7-0.4,1.1-0.7,1.1c-0.3,0-0.9-0.3-1.7-0.8c-0.5-0.3-0.8-0.6-0.8-0.8
		c-0.1-0.2-0.1-0.6,0-1.2c0.7-4.5,1.7-8.2,2.8-11.2c-1.5,2.5-3.6,5.3-6.3,8.3c-2.3,2.6-4,4.3-5,5c-0.7,0.5-1.3,0.8-1.7,0.8
		c-0.3,0-0.8-0.3-1.5-0.8c-0.9-0.6-1.4-1.3-1.4-2.3c0-0.2,0-0.4,0.1-0.7c0.3-2.6,1.5-5.7,3.4-9.1c2-3.5,4.2-6.4,6.8-8.8
		c0.8-0.8,1.6-1.2,2.2-1.1c0.6,0,1.8,0.9,3.6,2.5c0.2,0.1,0.2,0.3,0.2,0.5c0,0.3-0.2,0.4-0.6,0.4c-0.1,0-0.3,0-0.4-0.1
		c-1.2-0.5-2.3-0.5-3,0.1c-1.7,1.2-3.5,3.4-5.5,6.4c-2.3,3.5-3.7,6.7-4.2,9.5c0,0.1,0,0.2,0,0.3c0,0.4,0.2,0.7,0.5,0.7
		c0.6,0,1.3-0.4,2.1-1.2c2-1.9,4.1-4.3,6.4-7.3c2.3-3,3.8-5.3,4.5-6.8c0.5-1.1,0.8-1.9,0.9-2.4c0.2-0.8,0.5-1.2,0.7-1.2
		c0.3,0,0.9,0.4,1.9,1.1c0.4,0.3,0.6,0.6,0.7,0.8C392,127.5,392,127.8,391.8,128.4L391.8,128.4z M411,125.7c0,0.5-0.2,1.3-0.7,2.4
		c-0.3,0.6-0.6,0.9-1.1,0.9c-0.3,0-0.8-0.1-1.5-0.3c-1.4,1.4-2.9,3.1-4.5,5.3c0.5,0,1.2,0,2.2-0.1c0.9-0.1,1.5-0.1,1.7-0.1
		c0.5,0,0.7,0.1,0.7,0.4c0,0.2-0.2,0.4-0.6,0.5c-1.7,0.4-3.7,1-6.1,1.8c-2.1,2.6-3.4,4.6-4,5.9c0.7,0,2,0.1,4.2,0.4
		c2.1,0.3,3.6,0.4,4.4,0.4c1,0,1.9-0.5,2.5-1.5c0.2-0.3,0.4-0.4,0.6-0.4c0.4,0,0.4,0.3,0.2,0.9c-0.2,0.5-0.7,1.5-1.6,3.1
		c-0.6,1.1-1.5,1.6-2.7,1.6c-0.8,0-2.2-0.3-4.2-0.9c-2-0.6-3.5-0.9-4.6-0.9c-0.4,0-0.8,0-1.1,0.1c-0.5,1.1-1,1.6-1.6,1.7
		c-0.4,0-0.7-0.3-1-0.8c-0.4-0.6-0.5-1.1-0.5-1.5c0-0.4,0.2-0.8,0.5-1.2c0.7-0.7,1.5-1.1,2.5-1.1c1.5-1.7,2.7-3.2,3.4-4.2
		c-0.1-0.3-0.2-0.8-0.3-1.5c-0.1-0.5-0.2-0.9-0.2-1.1c0-0.2,0-0.4,0.1-0.5c0.3-0.6,1.5-0.8,3.4-0.8c1.6-2.1,3.1-4,4.7-5.8
		c-1.5-0.4-3.1-0.6-4.8-0.6c-1.1,0-2,0.2-2.6,0.6c-0.6,0.4-1.3,1.2-1.9,2.4c-0.2,0.4-0.5,0.6-0.8,0.6c-0.2,0-0.3-0.2-0.3-0.5
		c0-0.2,0-0.3,0.1-0.5c0.7-1.9,1.3-3.5,1.9-4.6c0.4-0.6,0.6-1,0.9-1.2c0.4-0.3,1.1-0.4,2.1-0.4c1.6,0,4.3,0.5,8.2,1.4
		c0.8-0.6,1.3-1,1.5-1c0.2,0,0.4,0,0.6,0.1C410.9,125.1,411,125.4,411,125.7L411,125.7z M436.5,112.2c0.5,0.3,0.7,0.6,0.7,0.9
		c0,0.2-0.2,0.3-0.5,0.3c-0.1,0-0.2,0-0.3,0c-0.2,0-0.3,0-0.3,0c-0.7,0-1.5,0.7-2.4,2.2c-0.8,1.3-2,4.1-3.5,8.5
		c-0.1,0.4-0.2,0.6-0.2,0.7c0,0.1,0.3,0.2,0.7,0.2c1,0.1,2.4,0.1,4.2-0.1c0.6-0.1,0.9,0.2,0.9,0.8c0,0.4-0.2,0.6-0.7,0.7
		c-0.4,0.1-2.3,0.2-5.8,0.5c-2.1,6.2-3.4,11.4-3.9,15.7c0,0.2,0,0.4,0,0.6c0,0.6,0.2,0.9,0.5,0.9c0.5,0,1.9-1.2,4.3-3.5
		c0.3-0.3,0.6-0.4,0.8-0.4c0.2,0,0.4,0.1,0.4,0.3c0.1,0.2,0,0.5-0.2,0.7c-1.4,1.9-2.8,3.5-4.2,4.8c-0.6,0.5-1.1,0.8-1.5,0.8
		c-0.4,0-1-0.3-1.8-0.9c-1-0.3-1.5-0.8-1.5-1.6c0-0.1,0-0.3,0-0.4c0.7-4.5,1.9-10.2,3.8-16.8c-0.9-0.1-1.8-0.2-2.5-0.4
		c-0.3-0.1-0.5-0.3-0.5-0.6c0-0.4,0.2-0.7,0.5-0.7c0.4-0.1,1-0.3,2-0.6c0.6-0.2,1.1-0.5,1.7-0.8c1.9-5.8,3.4-9.6,4.4-11.4
		c0.6-1,1.3-1.5,2-1.5C434.2,111.1,435.2,111.5,436.5,112.2L436.5,112.2z M451.2,129.2c0,1.6-0.4,3.7-1.1,6.3
		c-1.1,4.1-2.8,7.3-4.9,9.5c-1.1,1.2-2.4,1.8-3.7,1.8c-0.5,0-1.2-0.1-2-0.3c-1.7-0.1-3-0.6-4.1-1.6c-1.1-1-1.7-2.3-1.6-4
		c0.1-1.9,0.7-4.5,1.9-7.8c1.3-3.7,2.7-6.3,4.2-7.9c0.7-0.8,1.3-1.2,1.7-1.2c0.6,0,1.6,0.6,2.9,1.9c0.4-0.2,1.1-0.5,2.3-1
		c0.6-0.2,1-0.3,1.3-0.3c0.7,0,1.5,0.6,2.3,1.9C451,127.4,451.3,128.3,451.2,129.2L451.2,129.2z M448.2,130c0.1-1.2,0.2-1.9,0.2-2.3
		c0-0.7-0.2-1.1-0.7-1.1c-0.2,0-0.4,0-0.7,0.1l-4.1,1.7c-0.5,0.2-0.8,0.3-0.8,0.3c-0.1,0-0.3-0.2-0.4-0.5c-1,1.3-2,3.1-2.9,5.4
		c-0.7,1.9-1.2,3.5-1.4,5c-0.2,1-0.3,1.9-0.3,2.7c0,2.7,0.8,4.1,2.5,4c0.7,0,1.4-0.3,2.2-0.8c1.5-1,2.9-3,4.2-6
		C447.1,135.6,447.9,132.8,448.2,130L448.2,130z M485.8,104.9c0.2,0.2,0.3,0.3,0.3,0.5c0,0.3-0.2,0.5-0.6,0.5c-0.2,0-0.3,0-0.5-0.1
		c-0.8-0.4-1.4-0.6-1.9-0.6c-1.1,0-2.3,1.1-3.6,3.2c-4.9,7.9-8.4,18.5-10.6,31.7c0.5-0.4,1.1-1.1,1.9-2.1c0.5-0.5,0.8-0.8,1-0.8
		c0.5,0,0.5,0.3,0.1,0.8c-1.7,2.4-2.8,4.9-3.4,7.6c-0.2,0.7-0.5,1-0.8,1c-0.2,0-0.4-0.1-0.6-0.2c-0.9-0.6-1.4-0.9-1.5-1.1
		c-0.4-0.3-0.5-0.8-0.5-1.4c0-0.3,0-0.7,0.1-1.1c0.8-4.1,1.4-7.1,1.9-9.1c-1.7,2.5-3.7,5-5.9,7.5c-2.2,2.5-3.8,4.1-4.8,4.7
		c-0.8,0.5-1.3,0.8-1.7,0.8c-0.3,0-0.8-0.3-1.5-0.8c-1.1-0.7-1.7-1.5-1.7-2.5c0-0.2,0-0.3,0.1-0.5c0.4-2.6,1.5-5.7,3.5-9.1
		c2-3.5,4.3-6.4,6.8-8.8c0.8-0.8,1.6-1.2,2.2-1.1c0.7,0,1.9,0.9,3.7,2.5c0.2,0.1,0.2,0.3,0.2,0.5c0,0.3-0.2,0.4-0.6,0.4
		c-0.1,0-0.3,0-0.4-0.1c-1.2-0.5-2.2-0.5-3,0.1c-1.7,1.2-3.5,3.4-5.5,6.4c-2.3,3.5-3.7,6.7-4.1,9.5c-0.1,0.7,0.1,1,0.5,1
		c0.6,0,1.3-0.4,2.1-1.2c2-1.9,4.1-4.3,6.3-7.3c2.3-3,3.8-5.3,4.4-6.8c0.4-0.8,0.7-1.7,0.9-2.4c1.8-6.5,3.9-12.1,6.1-16.7
		c1.8-3.6,3.3-6,4.7-7.3c0.5-0.5,1-0.7,1.4-0.7c0.5,0,1.1,0.3,1.9,0.9C484,103.4,484.9,104.2,485.8,104.9L485.8,104.9z M493.4,128.4
		c-1.6,4.5-2.7,8.3-3.4,11.3c0.3-0.3,0.6-0.6,1-1.1c0.4-0.5,0.7-0.8,0.8-0.9c0.2-0.3,0.5-0.5,0.8-0.5c0.3,0,0.4,0.1,0.4,0.4
		c0,0.2-0.1,0.3-0.2,0.6c-1.7,2.5-2.8,4.9-3.3,7.4c-0.2,0.7-0.4,1.1-0.7,1.1c-0.3,0-0.9-0.3-1.7-0.8c-0.5-0.3-0.8-0.6-0.8-0.8
		c-0.1-0.2-0.1-0.6,0-1.2c0.7-4.5,1.7-8.2,2.8-11.2c-1.5,2.5-3.6,5.3-6.3,8.3c-2.3,2.6-4,4.3-5,5c-0.7,0.5-1.3,0.8-1.7,0.8
		c-0.3,0-0.8-0.3-1.5-0.8c-0.9-0.6-1.4-1.3-1.4-2.3c0-0.2,0-0.4,0.1-0.7c0.3-2.6,1.5-5.7,3.4-9.1c2-3.5,4.2-6.4,6.8-8.8
		c0.8-0.8,1.6-1.2,2.2-1.1c0.6,0,1.8,0.9,3.6,2.5c0.2,0.1,0.2,0.3,0.2,0.5c0,0.3-0.2,0.4-0.6,0.4c-0.1,0-0.3,0-0.4-0.1
		c-1.2-0.5-2.3-0.5-3,0.1c-1.7,1.2-3.5,3.4-5.5,6.4c-2.3,3.5-3.7,6.7-4.2,9.5c0,0.1,0,0.2,0,0.3c0,0.4,0.2,0.7,0.5,0.7
		c0.6,0,1.3-0.4,2.1-1.2c2-1.9,4.1-4.3,6.4-7.3c2.3-3,3.8-5.3,4.5-6.8c0.5-1.1,0.8-1.9,0.9-2.4c0.2-0.8,0.5-1.2,0.7-1.2
		c0.3,0,0.9,0.4,1.9,1.1c0.4,0.3,0.6,0.6,0.7,0.8C493.6,127.5,493.6,127.8,493.4,128.4L493.4,128.4z M524.2,128.4
		c-1.6,4.5-2.7,8.3-3.4,11.3c0.3-0.3,0.6-0.6,1-1.1c0.4-0.5,0.7-0.8,0.8-0.9c0.2-0.3,0.5-0.5,0.8-0.5c0.3,0,0.4,0.1,0.4,0.4
		c0,0.2-0.1,0.3-0.2,0.6c-1.7,2.5-2.8,4.9-3.3,7.4c-0.2,0.7-0.4,1.1-0.7,1.1c-0.3,0-0.9-0.3-1.7-0.8c-0.5-0.3-0.8-0.6-0.8-0.8
		c-0.1-0.2-0.1-0.6,0-1.2c0.7-4.5,1.7-8.2,2.8-11.2c-1.5,2.5-3.6,5.3-6.3,8.3c-2.3,2.6-4,4.3-5,5c-0.7,0.5-1.3,0.8-1.7,0.8
		c-0.3,0-0.8-0.3-1.5-0.8c-0.9-0.6-1.4-1.3-1.4-2.3c0-0.2,0-0.4,0.1-0.7c0.3-2.6,1.5-5.7,3.4-9.1c2-3.5,4.2-6.4,6.8-8.8
		c0.8-0.8,1.6-1.2,2.2-1.1c0.6,0,1.8,0.9,3.6,2.5c0.2,0.1,0.2,0.3,0.2,0.5c0,0.3-0.2,0.4-0.6,0.4c-0.1,0-0.3,0-0.4-0.1
		c-1.2-0.5-2.3-0.5-3,0.1c-1.7,1.2-3.5,3.4-5.5,6.4c-2.3,3.5-3.7,6.7-4.2,9.5c0,0.1,0,0.2,0,0.3c0,0.4,0.2,0.7,0.5,0.7
		c0.6,0,1.3-0.4,2.1-1.2c2-1.9,4.1-4.3,6.4-7.3c2.3-3,3.8-5.3,4.5-6.8c0.5-1.1,0.8-1.9,0.9-2.4c0.2-0.8,0.5-1.2,0.7-1.2
		c0.3,0,0.9,0.4,1.9,1.1c0.4,0.3,0.6,0.6,0.7,0.8C524.5,127.5,524.4,127.8,524.2,128.4L524.2,128.4z M569.3,104.9
		c0.2,0.2,0.3,0.3,0.3,0.5c0,0.3-0.2,0.5-0.6,0.5c-0.2,0-0.3,0-0.5-0.1c-0.8-0.4-1.4-0.6-1.9-0.6c-1.1,0-2.3,1.1-3.6,3.2
		c-4.9,7.9-8.4,18.5-10.6,31.7c0.5-0.4,1.1-1.1,1.9-2.1c0.5-0.5,0.8-0.8,1-0.8c0.5,0,0.5,0.3,0.1,0.8c-1.7,2.4-2.8,4.9-3.4,7.6
		c-0.2,0.7-0.5,1-0.8,1c-0.2,0-0.4-0.1-0.6-0.2c-0.9-0.6-1.4-0.9-1.5-1.1c-0.4-0.3-0.5-0.8-0.5-1.4c0-0.3,0-0.7,0.1-1.1
		c0.8-4.1,1.4-7.1,1.9-9.1c-1.7,2.5-3.7,5-5.9,7.5c-2.2,2.5-3.8,4.1-4.8,4.7c-0.8,0.5-1.3,0.8-1.7,0.8c-0.3,0-0.8-0.3-1.5-0.8
		c-1.1-0.7-1.7-1.5-1.7-2.5c0-0.2,0-0.3,0.1-0.5c0.4-2.6,1.5-5.7,3.5-9.1c2-3.5,4.3-6.4,6.8-8.8c0.8-0.8,1.6-1.2,2.2-1.1
		c0.7,0,1.9,0.9,3.7,2.5c0.2,0.1,0.2,0.3,0.2,0.5c0,0.3-0.2,0.4-0.6,0.4c-0.1,0-0.3,0-0.4-0.1c-1.2-0.5-2.2-0.5-3,0.1
		c-1.7,1.2-3.5,3.4-5.5,6.4c-2.3,3.5-3.7,6.7-4.1,9.5c-0.1,0.7,0.1,1,0.5,1c0.6,0,1.3-0.4,2.1-1.2c2-1.9,4.1-4.3,6.3-7.3
		c2.3-3,3.8-5.3,4.4-6.8c0.4-0.8,0.7-1.7,0.9-2.4c1.8-6.5,3.9-12.1,6.1-16.7c1.8-3.6,3.3-6,4.7-7.3c0.5-0.5,1-0.7,1.4-0.7
		c0.5,0,1.1,0.3,1.9,0.9C567.6,103.4,568.4,104.2,569.3,104.9L569.3,104.9z M569.7,116.4c0.3,0.2,0.4,0.4,0.4,0.7
		c0,0.5-0.8,1.3-2.3,2.4c-1,0.7-2,0.9-2.9,0.7c-0.5-0.1-1-0.3-1.4-0.6c-0.1-0.1-0.2-0.2-0.3-0.3c-0.1-0.1-0.1-0.2,0-0.3
		c0.1-0.1,0.2-0.1,0.3-0.1c1.6-1.4,2.7-2.4,3.2-3c0.4-0.5,0.7-0.7,0.9-0.7C567.9,115.3,568.6,115.6,569.7,116.4L569.7,116.4z
		 M565.9,128c-0.4,2.4-1.5,6.3-3.3,11.9c0.5-0.5,1.2-1.3,2.1-2.5c0.1-0.2,0.3-0.2,0.4-0.2c0.3,0,0.3,0.2,0.1,0.7
		c-0.1,0.2-0.8,1.4-2.2,3.6c-1.1,1.7-1.8,3.2-2.3,4.5c-0.2,0.4-0.5,0.6-0.9,0.6c-0.4,0-1-0.2-1.7-0.6c-0.5-0.2-0.7-0.4-0.7-0.6
		c0-0.1,0.1-0.3,0.3-0.7c1-1.7,2-4.5,3.2-8.4c1.1-3.8,1.7-6.7,1.9-8.5c0.1-0.8,0-1.2-0.2-1.2c-0.2,0-0.4,0.2-0.8,0.6l-1.6,1.5
		c-0.6,0.5-0.9,0.6-0.9,0.1c0-0.1,0.1-0.3,0.2-0.5c0.8-1.2,1.7-2.3,2.6-3.3c0.3-0.3,0.6-0.5,0.8-0.5c0.3,0,0.7,0.2,1.2,0.6
		c0.8,0.2,1.3,0.3,1.4,0.4c0.4,0.3,0.6,0.7,0.6,1.4C566,127.2,566,127.6,565.9,128L565.9,128z M591,106.2c0.3,0.2,0.4,0.4,0.4,0.6
		c0,0.4-0.2,0.5-0.7,0.5c-0.2,0-0.4,0-0.6-0.1c-1-0.6-1.9-0.8-2.7-0.8c-0.6,0-1.1,0.1-1.6,0.4c-1.8,1.1-4.6,7-8.4,17.7
		c2.9,0.4,4.7,0.7,5.4,0.7c0.4,0,0.6,0.2,0.6,0.5c0,0.3-0.2,0.5-0.6,0.6c-2.1,0.4-4.2,0.6-6.3,0.7c-2.4,7.2-4.3,13.8-5.7,19.9
		c-1.1,5-1.6,8.5-1.6,10.6c0,0.2,0,0.4,0.1,0.8c0.1,0.4,0.1,0.6,0.1,0.8c0,0.3-0.1,0.4-0.3,0.4c-0.3,0-0.9-0.3-1.9-0.9
		c-1.2-0.7-1.7-1.5-1.5-2.4c1.5-7.8,4.1-17.6,7.8-29.2c-1.4,0.1-2.2,0.1-2.5,0.1c-0.4-0.1-0.6-0.2-0.8-0.5c-0.2-0.5-0.3-0.7-0.3-0.8
		c0-0.3,0.3-0.5,0.8-0.6c0.8-0.2,1.6-0.4,2.4-0.6c0.7-0.2,1.2-0.5,1.3-0.9c2.8-8.2,5.1-13.8,6.7-16.9c1.3-2.5,2.6-3.7,3.8-3.7
		C586.4,103.3,588.3,104.3,591,106.2L591,106.2z M595.8,138.5c-4.3,5.5-7.3,8.2-9.1,8.2c-0.8,0-1.9-0.6-3.1-1.7
		c-1.3-0.6-2-1.4-2-2.5c0-0.2,0-0.4,0.1-0.6c0.3-2.4,1-5.1,1.9-8c-0.7-0.3-1-0.7-1-0.9c0-0.3,0.2-0.4,0.6-0.4c0.3,0,0.6,0.1,0.9,0.2
		c1.6-3.5,3-6,4.2-7.5c0.8-1,1.5-1.5,2.2-1.5c0.3,0,1,0.3,2.2,0.8c-0.1-0.5,0.1-0.8,0.4-0.9c0,0,0.4,0,1.2,0c0.8,0,1.1,0.1,1.1,0.4
		c0,0.1,0,0.2-0.1,0.5c-0.1,0.3-0.1,0.5-0.1,0.7c0,0.6,0,1.4,0,2.4c0,0.9,0,1.6,0,1.9c0,2.2-0.6,3.7-1.8,4.6
		c-1.1,0.8-2.3,1.2-3.7,1.2c-0.7,0-1.9-0.2-3.6-0.6c-0.3,0.6-0.6,1.6-1,3.2c-0.5,2-0.7,3.8-0.7,5.4c0,0.9,0.3,1.4,0.9,1.4
		c0.2,0,0.5-0.1,0.8-0.2c2-0.7,4.9-2.9,8.6-6.6c0.2-0.2,0.5-0.3,0.7-0.3c0.3,0,0.5,0.2,0.5,0.5C596,138,595.9,138.2,595.8,138.5
		L595.8,138.5z M592.7,126.7c0-0.7-0.2-1-0.5-1c-0.2,0-0.5,0.1-0.9,0.4c-1.7,1.4-3.2,3.8-4.6,7.3c0.4,0.1,1,0.1,1.9,0.2
		c1.4,0.1,2.5-0.3,3.2-1c0.5-0.5,0.8-1.4,0.9-2.6C592.7,130.9,592.7,129.8,592.7,126.7L592.7,126.7z M614.6,126.1
		c0,2.3-0.3,4.5-0.9,6.6c-0.2,0.6-0.5,1-0.8,1c-0.2,0-0.8-0.4-1.6-1.1c-0.4-0.4-0.5-0.9-0.3-1.5c0.5-1.6,0.7-2.9,0.7-3.9
		c0-0.3-0.1-0.5-0.2-0.5c-0.2,0-0.6,0.3-1,1c-3.7,4.8-6.4,10.2-8.2,16.1c-0.6,1.9-1.1,2.8-1.5,2.8c-0.2,0-0.9-0.3-2.1-0.9
		c-0.6-0.3-0.8-0.9-0.6-1.8c1.4-6.1,2.9-11.3,4.5-15.5c-1.3,1.4-2.1,2.3-2.5,2.8c-0.1,0.2-0.3,0.3-0.6,0.3c-0.3,0-0.5-0.1-0.5-0.4
		c0-0.2,0.1-0.3,0.2-0.5c0.9-1,2-2.6,3.5-4.8c0.4-0.8,0.9-1.2,1.3-1.2c0.3,0,1,0.3,1.9,0.7c0.5,0.3,0.6,0.7,0.3,1.1
		c-0.4,0.5-1.1,2.3-2.2,5.4c-1,3-1.7,5.4-2.1,7.1c2.4-5.4,5.1-10.1,8.2-14.2c0.6-0.8,1-1.2,1.4-1.2c0.3,0,0.8,0.2,1.3,0.6
		c0.7,0.1,1.2,0.2,1.4,0.3C614.4,125,614.6,125.5,614.6,126.1L614.6,126.1z M628.7,138.5c-4.3,5.5-7.3,8.2-9.1,8.2
		c-0.8,0-1.9-0.6-3.1-1.7c-1.3-0.6-2-1.4-2-2.5c0-0.2,0-0.4,0.1-0.6c0.3-2.4,1-5.1,1.9-8c-0.7-0.3-1-0.7-1-0.9
		c0-0.3,0.2-0.4,0.6-0.4c0.3,0,0.6,0.1,0.9,0.2c1.6-3.5,3-6,4.2-7.5c0.8-1,1.5-1.5,2.2-1.5c0.3,0,1,0.3,2.2,0.8
		c-0.1-0.5,0.1-0.8,0.4-0.9c0,0,0.4,0,1.2,0c0.8,0,1.1,0.1,1.1,0.4c0,0.1,0,0.2-0.1,0.5c-0.1,0.3-0.1,0.5-0.1,0.7c0,0.6,0,1.4,0,2.4
		c0,0.9,0,1.6,0,1.9c0,2.2-0.6,3.7-1.8,4.6c-1.1,0.8-2.3,1.2-3.7,1.2c-0.7,0-1.9-0.2-3.6-0.6c-0.3,0.6-0.6,1.6-1,3.2
		c-0.5,2-0.7,3.8-0.7,5.4c0,0.9,0.3,1.4,0.9,1.4c0.2,0,0.5-0.1,0.8-0.2c2-0.7,4.9-2.9,8.6-6.6c0.2-0.2,0.5-0.3,0.7-0.3
		c0.3,0,0.5,0.2,0.5,0.5C629,138,628.9,138.2,628.7,138.5L628.7,138.5z M625.6,126.7c0-0.7-0.2-1-0.5-1c-0.2,0-0.5,0.1-0.9,0.4
		c-1.7,1.4-3.2,3.8-4.6,7.3c0.4,0.1,1,0.1,1.9,0.2c1.4,0.1,2.5-0.3,3.2-1c0.5-0.5,0.8-1.4,0.9-2.6
		C625.6,130.9,625.6,129.8,625.6,126.7L625.6,126.7z"/>
	<path class="st1" d="M650.9,136.6c-1.1,1.6-2.4,3.9-4.1,7c-0.3,0.8-0.6,1.6-0.9,2.4c-0.2,0.6-0.6,0.8-1,0.8c-0.3,0-0.8-0.1-1.4-0.4
		c-0.7-0.3-1-0.6-1-0.8c0-0.1,0.1-0.4,0.3-0.8c1.1-2.3,2.2-5.2,3.1-8.7c1-3.7,1.4-6.4,1.2-8.4c0-0.8-0.2-1.2-0.5-1.2
		c-0.2,0-0.6,0.2-1,0.7c-4.4,4.3-8.3,10.2-11.5,17.4c-0.4,0.9-0.9,1.3-1.4,1.3c-0.4,0-1-0.2-1.9-0.7c-0.4-0.2-0.5-0.3-0.6-0.5
		c0-0.1,0.1-0.3,0.3-0.7c1-2.2,2-5.1,3-8.5c1.1-3.7,1.7-6.6,1.8-8.7c0-0.6,0-1-0.1-1c0,0-0.3,0.2-0.7,0.7c-0.5,0.5-1.1,1.1-2,1.9
		c-0.2,0.2-0.3,0.2-0.5,0.2c-0.2,0-0.4-0.1-0.4-0.3c0-0.1,0.1-0.3,0.3-0.5c0.8-1,1.8-2.2,3-3.6c0.3-0.3,0.5-0.5,0.8-0.5
		c0.4,0,0.8,0.3,1.1,0.9c1.4,0.4,2.1,1.1,2,2c-0.2,1.9-1.2,5.5-3,10.5c1.2-2.3,2.9-4.8,5.2-7.6c2.3-2.8,3.9-4.5,5-5
		c0.5-0.2,0.9-0.4,1.2-0.4c0.2,0,0.6,0.2,1.1,0.6c1.5,0.5,2.2,1.4,2.2,2.5c0,1.2-0.3,3.2-0.9,6c-0.5,2.3-0.9,4-1.3,5.3
		c0.5-0.7,1.2-1.5,2-2.5c0.1-0.2,0.3-0.3,0.4-0.3c0.3,0,0.4,0.2,0.4,0.5C650.9,136.4,650.9,136.5,650.9,136.6L650.9,136.6z
		 M668,126.5c0,2.7-0.4,4.9-1.1,6.6c-0.3,0.7-0.8,0.8-1.5,0.5c-1-0.6-1.5-1-1.5-1.3c0-0.2,0.1-0.3,0.3-0.5c0.6-1.7,0.9-3,0.8-4
		c0-0.8-0.4-1.2-1.2-1.2c-0.1,0-0.2,0-0.4-0.1c-0.2,0-0.3-0.1-0.4-0.1c-0.6,0-1.4,0.6-2.3,1.7c-1,1.3-1.9,3.1-2.8,5.5
		c-0.8,1.9-1.2,3.6-1.5,5c-0.2,1-0.3,1.9-0.3,2.7c0,2.7,0.9,4,2.6,4c1.5,0,3.7-1.9,6.6-5.6c0.3-0.3,0.5-0.5,0.8-0.5
		c0.2,0,0.3,0.1,0.3,0.4c0,0.1,0,0.3-0.1,0.5c-0.9,2.3-2.2,4.3-3.7,6.1c-0.4,0.4-1,0.7-2,0.7c-0.6,0-1.2-0.1-2.1-0.3
		c-0.4,0-0.9-0.1-1.5-0.2c-0.5,0.9-1,1.9-1.5,2.9c1.2-0.3,2.4-0.4,3.4-0.3c0.6,0.1,0.9,0.2,1.1,0.4c0.2,0.2,0.2,0.7,0.3,1.4
		c0.6,0.8,0.9,1.3,0.9,1.7c0,0.4-0.3,0.8-0.8,1.1c-1.5,1.2-3.3,2-5.4,2.5c-0.2,0-0.3,0.1-0.4,0.1c-0.6,0-1-0.6-1.3-1.7
		c-0.1-0.2-0.1-0.4-0.1-0.5c0-0.3,0.1-0.4,0.4-0.4c0.2,0,0.5,0.1,0.8,0.4c0.1,0,0.1,0,0.2,0c1.4,0,2.8-0.5,4.2-1.6
		c0.5-0.4,0.8-0.7,0.8-0.9c0-0.3-0.4-0.4-1.1-0.5c-0.6,0-1.7,0.1-3.3,0.5c-0.4,0.1-0.8-0.3-1.2-1.2c-0.1-0.4,0-0.9,0.3-1.4
		c0.1-0.2,0.8-1.1,1.9-2.6c-2.1-0.9-3.1-2.6-3-5c0.1-1.9,0.7-4.4,1.9-7.8c1.3-3.6,2.7-6.2,4.2-7.8c0.7-0.7,1.2-1.1,1.7-1.1
		c0.5,0,1.4,0.4,2.7,1.2c0.7-0.3,1.4-0.4,2.1-0.4C667.3,125,668,125.5,668,126.5L668,126.5z M688,128.4c-1.6,4.5-2.7,8.3-3.4,11.3
		c0.3-0.3,0.6-0.6,1-1.1c0.4-0.5,0.7-0.8,0.8-0.9c0.2-0.3,0.5-0.5,0.8-0.5c0.3,0,0.4,0.1,0.4,0.4c0,0.2-0.1,0.3-0.2,0.6
		c-1.7,2.5-2.8,4.9-3.3,7.4c-0.2,0.7-0.4,1.1-0.7,1.1c-0.3,0-0.9-0.3-1.7-0.8c-0.5-0.3-0.8-0.6-0.8-0.8c-0.1-0.2-0.1-0.6,0-1.2
		c0.7-4.5,1.7-8.2,2.8-11.2c-1.5,2.5-3.6,5.3-6.3,8.3c-2.3,2.6-4,4.3-5,5c-0.7,0.5-1.3,0.8-1.7,0.8c-0.3,0-0.8-0.3-1.5-0.8
		c-0.9-0.6-1.4-1.3-1.4-2.3c0-0.2,0-0.4,0.1-0.7c0.3-2.6,1.5-5.7,3.4-9.1c2-3.5,4.2-6.4,6.8-8.8c0.8-0.8,1.6-1.2,2.2-1.1
		c0.6,0,1.8,0.9,3.6,2.5c0.2,0.1,0.2,0.3,0.2,0.5c0,0.3-0.2,0.4-0.6,0.4c-0.1,0-0.3,0-0.4-0.1c-1.2-0.5-2.3-0.5-3,0.1
		c-1.7,1.2-3.5,3.4-5.5,6.4c-2.3,3.5-3.7,6.7-4.2,9.5c0,0.1,0,0.2,0,0.3c0,0.4,0.2,0.7,0.5,0.7c0.6,0,1.3-0.4,2.1-1.2
		c2-1.9,4.1-4.3,6.4-7.3c2.3-3,3.8-5.3,4.5-6.8c0.5-1.1,0.8-1.9,0.9-2.4c0.2-0.8,0.5-1.2,0.7-1.2c0.3,0,0.9,0.4,1.9,1.1
		c0.4,0.3,0.6,0.6,0.7,0.8C688.2,127.5,688.2,127.8,688,128.4L688,128.4z"/>
</g>
</svg>
